<svg id="Layer_1" height="512" viewBox="0 0 150 150" width="512" xmlns="http://www.w3.org/2000/svg" data-name="Layer 1"><path d="m139 75a64 64 0 1 1 -64-64 64 64 0 0 1 64 64" fill="#029bc5"/><path d="m58.2 50.63h7.01v18.03h-7.01z" fill="#3a556a"/><path d="m52.82 64.74h30.23v27.32h-30.23z" fill="#d5d6db"/><path d="m37.53 76.58h24.39v22.04h-24.39z" fill="#e1e6e9"/><path d="m116.34 85.86c-.17.34-.35.7-.54 1s-.39.73-.6 1.1c-4.24 7.4-12.72 16.71-29 18.91h-47.4a7.9 7.9 0 0 1 -7.63-5.85 7.37 7.37 0 0 1 -.28-2.02v-10.84l22.35-.16h14.68l2.14-2.15h46.28" fill="#dc8744"/><path d="m119.11 78.32a33.52 33.52 0 0 1 -2.77 7.54c-.17.34-.35.7-.54 1s-.39.73-.6 1.1h-47.28l2.14-2.15 7.54-7.54h41.51" fill="#fcd462"/><g fill="#3a556a"><path d="m55.68 67.88h3.38v3.38h-3.38z"/><path d="m62.73 67.88h3.38v3.38h-3.38z"/><path d="m69.78 67.88h3.38v3.38h-3.38z"/><path d="m76.82 67.88h3.38v3.38h-3.38z"/><path d="m39.91 79.1h2.71v2.7h-2.71z"/><path d="m45.55 79.1h2.71v2.7h-2.71z"/><path d="m51.2 79.1h2.71v2.7h-2.71z"/><path d="m56.84 79.1h2.71v2.7h-2.71z"/></g><path d="m58.2 53.79h7.01v1.63h-7.01z" fill="#ebf0f3"/><path d="m115.2 88h-7.39c-3.77 5-10.47 10.5-22.13 12.18-7.75 1.12-18.15 1.5-28.57 1.5-9.24 0-18.49-.3-25.94-.62a7.9 7.9 0 0 0 7.63 5.85h47.38c16.3-2.2 24.78-11.51 29-18.91" fill="#cb8248"/><path d="m119.11 78.32h-6.64v.09a24.44 24.44 0 0 1 -3.18 7.45c-.44.7-.92 1.42-1.48 2.15h7.39c.21-.37.41-.74.6-1.1s.37-.71.54-1a33.52 33.52 0 0 0 2.77-7.54" fill="#e8c763"/><path d="m62 45.05a2.69 2.69 0 0 0 -3-1.9c-.79.2-1.41.89-2.21 1a5 5 0 0 1 -2.22-.62 4.61 4.61 0 0 0 -3.11 0 11.68 11.68 0 0 1 -2.17.83 5.75 5.75 0 0 1 -2.24-.29 17.2 17.2 0 0 0 -8.78.21 5.38 5.38 0 0 0 -2.87 1.66 3.91 3.91 0 0 0 .34 4.82 6 6 0 0 0 4.74 1.79 12.82 12.82 0 0 0 5-1.49c1.91-.92 3.84-2.06 6-2.06a15 15 0 0 0 2.32 0 13 13 0 0 0 3.15-1.36c1.06-.46 2.47-.56 3.2.33a10.77 10.77 0 0 0 .73 1.08c.31.3.93.36 1.11 0l.08-.16a8 8 0 0 0 -.07-3.84z" fill="#e1e6e9"/></svg>